<svg xmlns="http://www.w3.org/2000/svg" viewBox="0 0 512 512" style="height: 512px; width: 512px;"><path d="M0 0h512v512H0z" fill="#000" fill-opacity="0"></path><g class="" transform="translate(0,0)" style=""><path d="M256 18.365L50.14 136 256 253.635 461.86 136 256 18.365zm-154 168L50.14 216 256 333.635 461.86 216 410 186.365l-154 88-154-88zm0 80L50.14 296 256 413.635 461.86 296 410 266.365l-154 88-154-88zm0 80L50.14 376 256 493.635 461.86 376 410 346.365l-154 88-154-88z" fill="#000" fill-opacity="1"></path></g><g font-family="Arial, Helvetica, sans-serif" font-size="120" font-style="normal" font-weight="bold" text-anchor="middle" text-decoration=" rgba(255, 255, 255, 1)" class="" transform="translate(253,163)" style=""><g transform="translate(0, 0) scale(0.7, 0.7) rotate(0, 0, 0) skewX(0) skewY(0)"><text stroke="rgba(0, 0, 0, 0)" stroke-width="30"><tspan x="0" y="0">1 / 2</tspan></text><text fill="rgba(255, 255, 255, 1)"><tspan x="0" y="0">1 / 2</tspan></text></g></g></svg>